<svg viewBox="-5.8 -5.8 40.6 40.6" fill="#fff" xmlns="http://www.w3.org/2000/svg"><path fill="#000" d="M0 0h1v1H0zM0 1h1v1H0zM0 2h1v1H0zM0 3h1v1H0zM0 4h1v1H0zM0 5h1v1H0zM0 6h1v1H0zM0 8h1v1H0zM0 9h1v1H0zM0 11h1v1H0zM0 12h1v1H0zM0 14h1v1H0zM0 15h1v1H0zM0 16h1v1H0zM0 17h1v1H0zM0 22h1v1H0zM0 23h1v1H0zM0 24h1v1H0zM0 25h1v1H0zM0 26h1v1H0zM0 27h1v1H0zM0 28h1v1H0zM1 0h1v1H1zM1 6h1v1H1zM1 8h1v1H1zM1 9h1v1H1zM1 10h1v1H1zM1 11h1v1H1zM1 12h1v1H1zM1 16h1v1H1zM1 17h1v1H1zM1 18h1v1H1zM1 19h1v1H1zM1 20h1v1H1zM1 22h1v1H1zM1 28h1v1H1zM2 0h1v1H2zM2 2h1v1H2zM2 3h1v1H2zM2 4h1v1H2zM2 6h1v1H2zM2 8h1v1H2zM2 9h1v1H2zM2 11h1v1H2zM2 15h1v1H2zM2 16h1v1H2zM2 19h1v1H2zM2 20h1v1H2zM2 22h1v1H2zM2 24h1v1H2zM2 25h1v1H2zM2 26h1v1H2zM2 28h1v1H2zM3 0h1v1H3zM3 2h1v1H3zM3 3h1v1H3zM3 4h1v1H3zM3 6h1v1H3zM3 10h1v1H3zM3 16h1v1H3zM3 17h1v1H3zM3 22h1v1H3zM3 24h1v1H3zM3 25h1v1H3zM3 26h1v1H3zM3 28h1v1H3zM4 0h1v1H4zM4 2h1v1H4zM4 3h1v1H4zM4 4h1v1H4zM4 6h1v1H4zM4 8h1v1H4zM4 11h1v1H4zM4 14h1v1H4zM4 16h1v1H4zM4 17h1v1H4zM4 18h1v1H4zM4 19h1v1H4zM4 22h1v1H4zM4 24h1v1H4zM4 25h1v1H4zM4 26h1v1H4zM4 28h1v1H4zM5 0h1v1H5zM5 6h1v1H5zM5 9h1v1H5zM5 12h1v1H5zM5 17h1v1H5zM5 18h1v1H5zM5 20h1v1H5zM5 22h1v1H5zM5 28h1v1H5zM6 0h1v1H6zM6 1h1v1H6zM6 2h1v1H6zM6 3h1v1H6zM6 4h1v1H6zM6 5h1v1H6zM6 6h1v1H6zM6 8h1v1H6zM6 10h1v1H6zM6 12h1v1H6zM6 14h1v1H6zM6 16h1v1H6zM6 18h1v1H6zM6 20h1v1H6zM6 22h1v1H6zM6 23h1v1H6zM6 24h1v1H6zM6 25h1v1H6zM6 26h1v1H6zM6 27h1v1H6zM6 28h1v1H6zM7 9h1v1H7zM7 10h1v1H7zM7 11h1v1H7zM7 13h1v1H7zM7 15h1v1H7zM7 16h1v1H7zM7 19h1v1H7zM8 0h1v1H8zM8 3h1v1H8zM8 4h1v1H8zM8 5h1v1H8zM8 6h1v1H8zM8 7h1v1H8zM8 8h1v1H8zM8 9h1v1H8zM8 12h1v1H8zM8 13h1v1H8zM8 15h1v1H8zM8 17h1v1H8zM8 19h1v1H8zM8 20h1v1H8zM8 21h1v1H8zM8 24h1v1H8zM8 26h1v1H8zM8 27h1v1H8zM8 28h1v1H8zM9 0h1v1H9zM9 3h1v1H9zM9 4h1v1H9zM9 5h1v1H9zM9 9h1v1H9zM9 11h1v1H9zM9 13h1v1H9zM9 15h1v1H9zM9 17h1v1H9zM9 18h1v1H9zM9 19h1v1H9zM9 21h1v1H9zM9 23h1v1H9zM9 24h1v1H9zM9 26h1v1H9zM9 27h1v1H9zM10 0h1v1h-1zM10 4h1v1h-1zM10 5h1v1h-1zM10 6h1v1h-1zM10 7h1v1h-1zM10 8h1v1h-1zM10 9h1v1h-1zM10 12h1v1h-1zM10 13h1v1h-1zM10 15h1v1h-1zM10 23h1v1h-1zM10 24h1v1h-1zM10 26h1v1h-1zM11 1h1v1h-1zM11 2h1v1h-1zM11 3h1v1h-1zM11 4h1v1h-1zM11 5h1v1h-1zM11 8h1v1h-1zM11 9h1v1h-1zM11 11h1v1h-1zM11 12h1v1h-1zM11 13h1v1h-1zM11 16h1v1h-1zM11 17h1v1h-1zM11 18h1v1h-1zM11 19h1v1h-1zM11 21h1v1h-1zM11 22h1v1h-1zM11 23h1v1h-1zM11 25h1v1h-1zM11 28h1v1h-1zM12 1h1v1h-1zM12 3h1v1h-1zM12 6h1v1h-1zM12 11h1v1h-1zM12 13h1v1h-1zM12 15h1v1h-1zM12 18h1v1h-1zM12 20h1v1h-1zM12 22h1v1h-1zM12 23h1v1h-1zM12 28h1v1h-1zM13 0h1v1h-1zM13 1h1v1h-1zM13 2h1v1h-1zM13 8h1v1h-1zM13 9h1v1h-1zM13 12h1v1h-1zM13 13h1v1h-1zM13 14h1v1h-1zM13 15h1v1h-1zM13 16h1v1h-1zM13 17h1v1h-1zM13 18h1v1h-1zM13 22h1v1h-1zM13 23h1v1h-1zM13 24h1v1h-1zM13 25h1v1h-1zM13 26h1v1h-1zM13 27h1v1h-1zM13 28h1v1h-1zM14 0h1v1h-1zM14 1h1v1h-1zM14 2h1v1h-1zM14 5h1v1h-1zM14 6h1v1h-1zM14 10h1v1h-1zM14 11h1v1h-1zM14 12h1v1h-1zM14 13h1v1h-1zM14 15h1v1h-1zM14 17h1v1h-1zM14 19h1v1h-1zM14 20h1v1h-1zM14 21h1v1h-1zM14 22h1v1h-1zM14 24h1v1h-1zM14 26h1v1h-1zM14 28h1v1h-1zM15 2h1v1h-1zM15 3h1v1h-1zM15 8h1v1h-1zM15 9h1v1h-1zM15 11h1v1h-1zM15 12h1v1h-1zM15 19h1v1h-1zM15 23h1v1h-1zM15 24h1v1h-1zM15 26h1v1h-1zM15 28h1v1h-1zM16 1h1v1h-1zM16 2h1v1h-1zM16 4h1v1h-1zM16 5h1v1h-1zM16 6h1v1h-1zM16 10h1v1h-1zM16 14h1v1h-1zM16 19h1v1h-1zM16 20h1v1h-1zM16 21h1v1h-1zM16 25h1v1h-1zM17 0h1v1h-1zM17 1h1v1h-1zM17 2h1v1h-1zM17 3h1v1h-1zM17 8h1v1h-1zM17 9h1v1h-1zM17 12h1v1h-1zM17 13h1v1h-1zM17 14h1v1h-1zM17 15h1v1h-1zM17 16h1v1h-1zM17 17h1v1h-1zM17 19h1v1h-1zM17 24h1v1h-1zM17 26h1v1h-1zM17 27h1v1h-1zM18 0h1v1h-1zM18 1h1v1h-1zM18 2h1v1h-1zM18 4h1v1h-1zM18 5h1v1h-1zM18 6h1v1h-1zM18 9h1v1h-1zM18 11h1v1h-1zM18 15h1v1h-1zM18 17h1v1h-1zM18 18h1v1h-1zM18 19h1v1h-1zM18 24h1v1h-1zM18 25h1v1h-1zM18 28h1v1h-1zM19 0h1v1h-1zM19 1h1v1h-1zM19 2h1v1h-1zM19 3h1v1h-1zM19 4h1v1h-1zM19 5h1v1h-1zM19 7h1v1h-1zM19 9h1v1h-1zM19 10h1v1h-1zM19 11h1v1h-1zM19 12h1v1h-1zM19 14h1v1h-1zM19 16h1v1h-1zM19 19h1v1h-1zM19 22h1v1h-1zM19 25h1v1h-1zM19 26h1v1h-1zM20 0h1v1h-1zM20 1h1v1h-1zM20 3h1v1h-1zM20 6h1v1h-1zM20 7h1v1h-1zM20 9h1v1h-1zM20 12h1v1h-1zM20 13h1v1h-1zM20 14h1v1h-1zM20 15h1v1h-1zM20 16h1v1h-1zM20 17h1v1h-1zM20 20h1v1h-1zM20 21h1v1h-1zM20 22h1v1h-1zM20 23h1v1h-1zM20 24h1v1h-1zM20 25h1v1h-1zM20 26h1v1h-1zM20 27h1v1h-1zM21 8h1v1h-1zM21 9h1v1h-1zM21 10h1v1h-1zM21 12h1v1h-1zM21 14h1v1h-1zM21 15h1v1h-1zM21 20h1v1h-1zM21 24h1v1h-1zM21 25h1v1h-1zM22 0h1v1h-1zM22 1h1v1h-1zM22 2h1v1h-1zM22 3h1v1h-1zM22 4h1v1h-1zM22 5h1v1h-1zM22 6h1v1h-1zM22 8h1v1h-1zM22 9h1v1h-1zM22 10h1v1h-1zM22 12h1v1h-1zM22 14h1v1h-1zM22 15h1v1h-1zM22 18h1v1h-1zM22 19h1v1h-1zM22 20h1v1h-1zM22 22h1v1h-1zM22 24h1v1h-1zM22 25h1v1h-1zM23 0h1v1h-1zM23 6h1v1h-1zM23 8h1v1h-1zM23 9h1v1h-1zM23 14h1v1h-1zM23 17h1v1h-1zM23 18h1v1h-1zM23 19h1v1h-1zM23 20h1v1h-1zM23 24h1v1h-1zM23 28h1v1h-1zM24 0h1v1h-1zM24 2h1v1h-1zM24 3h1v1h-1zM24 4h1v1h-1zM24 6h1v1h-1zM24 8h1v1h-1zM24 9h1v1h-1zM24 10h1v1h-1zM24 11h1v1h-1zM24 13h1v1h-1zM24 14h1v1h-1zM24 15h1v1h-1zM24 16h1v1h-1zM24 19h1v1h-1zM24 20h1v1h-1zM24 21h1v1h-1zM24 22h1v1h-1zM24 23h1v1h-1zM24 24h1v1h-1zM24 25h1v1h-1zM24 28h1v1h-1zM25 0h1v1h-1zM25 2h1v1h-1zM25 3h1v1h-1zM25 4h1v1h-1zM25 6h1v1h-1zM25 8h1v1h-1zM25 11h1v1h-1zM25 13h1v1h-1zM25 15h1v1h-1zM25 16h1v1h-1zM25 18h1v1h-1zM25 21h1v1h-1zM25 28h1v1h-1zM26 0h1v1h-1zM26 2h1v1h-1zM26 3h1v1h-1zM26 4h1v1h-1zM26 6h1v1h-1zM26 12h1v1h-1zM26 13h1v1h-1zM26 15h1v1h-1zM26 17h1v1h-1zM26 18h1v1h-1zM26 20h1v1h-1zM26 21h1v1h-1zM26 23h1v1h-1zM26 24h1v1h-1zM26 26h1v1h-1zM26 27h1v1h-1zM26 28h1v1h-1zM27 0h1v1h-1zM27 6h1v1h-1zM27 11h1v1h-1zM27 15h1v1h-1zM27 22h1v1h-1zM27 23h1v1h-1zM27 25h1v1h-1zM27 26h1v1h-1zM27 28h1v1h-1zM28 0h1v1h-1zM28 1h1v1h-1zM28 2h1v1h-1zM28 3h1v1h-1zM28 4h1v1h-1zM28 5h1v1h-1zM28 6h1v1h-1zM28 8h1v1h-1zM28 9h1v1h-1zM28 10h1v1h-1zM28 12h1v1h-1zM28 14h1v1h-1zM28 19h1v1h-1zM28 20h1v1h-1zM28 22h1v1h-1zM28 24h1v1h-1z"/></svg>
