<svg viewBox="0 0 600 600" xmlns="http://www.w3.org/2000/svg" fill-rule="evenodd" clip-rule="evenodd" stroke-linecap="round" stroke-linejoin="round" stroke-miterlimit="1.5"><path d="M600 300C600 134.425 465.575 0 300 0S0 134.425 0 300s134.425 300 300 300 300-134.425 300-300z" fill="url(#_Radial1)"/><g fill="none" stroke="#cbf3f0" stroke-width="3.33"><path d="M209.091 100l-58.032.362s-52.682-1.893-51.021 44.983l.169 63.746M390.909 100l58.032.362s52.682-1.893 51.021 44.983l-.169 63.746M390.909 500l58.032-.362s52.682 1.893 51.021-44.983l-.169-63.746M209.091 500l-58.032-.362s-52.682 1.893-51.021-44.983l.169-63.746"/></g><g opacity=".08"><path d="M496.305 138.352c0-19.869-16.131-36-36-36h-328c-19.869 0-36 16.131-36 36v328c0 19.869 16.131 36 36 36h328c19.869 0 36-16.131 36-36v-328z" fill="#fff"/><path fill="#fff" d="M114.275 119.753h364.774v365.666H114.275z"/><path d="M137.986 143.522h10.943v10.97h-10.943zM148.929 143.522h10.943v10.97h-10.943zM159.872 143.522h10.943v10.97h-10.943z"/><path d="M170.815 143.522h10.943v10.97h-10.943zM181.759 143.522h10.943v10.97h-10.943zM192.702 143.522h10.943v10.97h-10.943zM203.645 143.522h10.943v10.97h-10.943zM225.531 143.522h10.943v10.97h-10.943zM247.418 143.522h10.943v10.97h-10.943zM269.304 143.522h10.943v10.97h-10.943zM280.247 143.522h10.943v10.97h-10.943zM302.134 143.522h10.943v10.97h-10.943zM345.907 143.522h10.943v10.97h-10.943zM356.85 143.522h10.943v10.97H356.85zM378.736 143.522h10.943v10.97h-10.943zM389.68 143.522h10.943v10.97H389.68zM400.623 143.522h10.943v10.97h-10.943zM411.566 143.522h10.943v10.97h-10.943zM422.509 143.522h10.943v10.97h-10.943zM433.452 143.522h10.943v10.97h-10.943zM444.396 143.522h10.943v10.97h-10.943zM137.986 154.492h10.943v10.97h-10.943zM203.645 154.492h10.943v10.97h-10.943zM236.475 154.492h10.943v10.97h-10.943z"/><path d="M247.418 154.492h10.943v10.97h-10.943zM258.361 154.492h10.943v10.97h-10.943zM269.304 154.492h10.943v10.97h-10.943zM280.247 154.492h10.943v10.97h-10.943zM313.077 154.492h10.943v10.97h-10.943zM356.85 154.492h10.943v10.97H356.85zM378.736 154.492h10.943v10.97h-10.943zM444.396 154.492h10.943v10.97h-10.943zM137.986 165.462h10.943v10.97h-10.943zM159.872 165.462h10.943v10.97h-10.943z"/><path d="M170.815 165.462h10.943v10.97h-10.943zM181.759 165.462h10.943v10.97h-10.943zM203.645 165.462h10.943v10.97h-10.943zM225.531 165.462h10.943v10.97h-10.943zM236.475 165.462h10.943v10.97h-10.943z"/><path d="M247.418 165.462h10.943v10.97h-10.943zM302.134 165.462h10.943v10.97h-10.943zM334.963 165.462h10.943v10.97h-10.943zM345.907 165.462h10.943v10.97h-10.943zM356.85 165.462h10.943v10.97H356.85zM378.736 165.462h10.943v10.97h-10.943zM400.623 165.462h10.943v10.97h-10.943zM411.566 165.462h10.943v10.97h-10.943zM422.509 165.462h10.943v10.97h-10.943zM444.396 165.462h10.943v10.97h-10.943zM137.986 176.432h10.943v10.97h-10.943zM159.872 176.432h10.943v10.97h-10.943z"/><path d="M170.815 176.432h10.943v10.97h-10.943zM181.759 176.432h10.943v10.97h-10.943zM203.645 176.432h10.943v10.97h-10.943zM225.531 176.432h10.943v10.97h-10.943zM236.475 176.432h10.943v10.97h-10.943z"/><path d="M247.418 176.432h10.943v10.97h-10.943zM269.304 176.432h10.943v10.97h-10.943zM291.191 176.432h10.943v10.97h-10.943zM324.02 176.432h10.943v10.97H324.02zM356.85 176.432h10.943v10.97H356.85zM378.736 176.432h10.943v10.97h-10.943zM400.623 176.432h10.943v10.97h-10.943zM411.566 176.432h10.943v10.97h-10.943zM422.509 176.432h10.943v10.97h-10.943zM444.396 176.432h10.943v10.97h-10.943zM137.986 187.401h10.943v10.97h-10.943zM159.872 187.401h10.943v10.97h-10.943z"/><path d="M170.815 187.401h10.943v10.97h-10.943zM181.759 187.401h10.943v10.97h-10.943zM203.645 187.401h10.943v10.97h-10.943zM225.531 187.401h10.943v10.97h-10.943zM258.361 187.401h10.943v10.97h-10.943zM269.304 187.401h10.943v10.97h-10.943zM291.191 187.401h10.943v10.97h-10.943zM302.134 187.401h10.943v10.97h-10.943zM324.02 187.401h10.943v10.97H324.02zM345.907 187.401h10.943v10.97h-10.943zM378.736 187.401h10.943v10.97h-10.943zM400.623 187.401h10.943v10.97h-10.943zM411.566 187.401h10.943v10.97h-10.943zM422.509 187.401h10.943v10.97h-10.943zM444.396 187.401h10.943v10.97h-10.943zM137.986 198.371h10.943v10.97h-10.943zM203.645 198.371h10.943v10.97h-10.943zM247.418 198.371h10.943v10.97h-10.943zM258.361 198.371h10.943v10.97h-10.943zM280.247 198.371h10.943v10.97h-10.943zM345.907 198.371h10.943v10.97h-10.943zM356.85 198.371h10.943v10.97H356.85zM378.736 198.371h10.943v10.97h-10.943zM444.396 198.371h10.943v10.97h-10.943zM137.986 209.341h10.943v10.97h-10.943zM148.929 209.341h10.943v10.97h-10.943zM159.872 209.341h10.943v10.97h-10.943z"/><path d="M170.815 209.341h10.943v10.97h-10.943zM181.759 209.341h10.943v10.97h-10.943zM192.702 209.341h10.943v10.97h-10.943zM203.645 209.341h10.943v10.97h-10.943zM225.531 209.341h10.943v10.97h-10.943zM247.418 209.341h10.943v10.97h-10.943zM269.304 209.341h10.943v10.97h-10.943zM291.191 209.341h10.943v10.97h-10.943zM313.077 209.341h10.943v10.97h-10.943zM334.963 209.341h10.943v10.97h-10.943zM356.85 209.341h10.943v10.97H356.85zM378.736 209.341h10.943v10.97h-10.943zM389.68 209.341h10.943v10.97H389.68zM400.623 209.341h10.943v10.97h-10.943zM411.566 209.341h10.943v10.97h-10.943zM422.509 209.341h10.943v10.97h-10.943zM433.452 209.341h10.943v10.97h-10.943zM444.396 209.341h10.943v10.97h-10.943zM247.418 220.311h10.943v10.97h-10.943zM269.304 220.311h10.943v10.97h-10.943zM313.077 220.311h10.943v10.97h-10.943zM324.02 220.311h10.943v10.97H324.02zM334.963 220.311h10.943v10.97h-10.943zM137.986 231.281h10.943v10.97h-10.943zM148.929 231.281h10.943v10.97h-10.943zM159.872 231.281h10.943v10.97h-10.943z"/><path d="M170.815 231.281h10.943v10.97h-10.943zM203.645 231.281h10.943v10.97h-10.943zM225.531 231.281h10.943v10.97h-10.943zM247.418 231.281h10.943v10.97h-10.943zM258.361 231.281h10.943v10.97h-10.943zM269.304 231.281h10.943v10.97h-10.943zM280.247 231.281h10.943v10.97h-10.943zM302.134 231.281h10.943v10.97h-10.943zM313.077 231.281h10.943v10.97h-10.943zM324.02 231.281h10.943v10.97H324.02zM334.963 231.281h10.943v10.97h-10.943zM345.907 231.281h10.943v10.97h-10.943zM356.85 231.281h10.943v10.97H356.85zM367.793 231.281h10.943v10.97h-10.943zM400.623 231.281h10.943v10.97h-10.943zM411.566 231.281h10.943v10.97h-10.943zM422.509 231.281h10.943v10.97h-10.943zM444.396 231.281h10.943v10.97h-10.943zM159.872 242.251h10.943v10.97h-10.943zM192.702 242.251h10.943v10.97h-10.943zM214.588 242.251h10.943v10.97h-10.943zM247.418 242.251h10.943v10.97h-10.943zM269.304 242.251h10.943v10.97h-10.943zM280.247 242.251h10.943v10.97h-10.943zM291.191 242.251h10.943v10.97h-10.943zM313.077 242.251h10.943v10.97h-10.943zM324.02 242.251h10.943v10.97H324.02zM334.963 242.251h10.943v10.97h-10.943zM345.907 242.251h10.943v10.97h-10.943zM356.85 242.251h10.943v10.97H356.85zM367.793 242.251h10.943v10.97h-10.943zM378.736 242.251h10.943v10.97h-10.943zM389.68 242.251h10.943v10.97H389.68zM400.623 242.251h10.943v10.97h-10.943zM444.396 242.251h10.943v10.97h-10.943zM137.986 253.221h10.943v10.97h-10.943zM148.929 253.221h10.943v10.97h-10.943zM159.872 253.221h10.943v10.97h-10.943z"/><path d="M170.815 253.221h10.943v10.97h-10.943zM181.759 253.221h10.943v10.97h-10.943zM192.702 253.221h10.943v10.97h-10.943zM203.645 253.221h10.943v10.97h-10.943zM236.475 253.221h10.943v10.97h-10.943z"/><path d="M247.418 253.221h10.943v10.97h-10.943zM258.361 253.221h10.943v10.97h-10.943zM269.304 253.221h10.943v10.97h-10.943zM280.247 253.221h10.943v10.97h-10.943zM313.077 253.221h10.943v10.97h-10.943zM334.963 253.221h10.943v10.97h-10.943zM400.623 253.221h10.943v10.97h-10.943zM422.509 253.221h10.943v10.97h-10.943zM433.452 253.221h10.943v10.97h-10.943zM170.815 264.191h10.943v10.97h-10.943zM181.759 264.191h10.943v10.97h-10.943z"/><path d="M236.475 264.191h10.943v10.97h-10.943z"/><path d="M247.418 264.191h10.943v10.97h-10.943zM302.134 264.191h10.943v10.97h-10.943zM367.793 264.191h10.943v10.97h-10.943zM378.736 264.191h10.943v10.97h-10.943zM444.396 264.191h10.943v10.97h-10.943zM137.986 275.161h10.943v10.97h-10.943zM159.872 275.161h10.943v10.97h-10.943z"/><path d="M170.815 275.161h10.943v10.97h-10.943zM192.702 275.161h10.943v10.97h-10.943zM203.645 275.161h10.943v10.97h-10.943z"/><path d="M214.588 275.161h10.943v10.97h-10.943zM225.531 275.161h10.943v10.97h-10.943zM236.475 275.161h10.943v10.97h-10.943z"/><path d="M247.418 275.161h10.943v10.97h-10.943zM269.304 275.161h10.943v10.97h-10.943zM291.191 275.161h10.943v10.97h-10.943zM324.02 275.161h10.943v10.97H324.02zM345.907 275.161h10.943v10.97h-10.943zM411.566 275.161h10.943v10.97h-10.943zM422.509 275.161h10.943v10.97h-10.943zM148.929 286.131h10.943v10.97h-10.943zM192.702 286.131h10.943v10.97h-10.943z"/><path d="M236.475 286.131h10.943v10.97h-10.943zM258.361 286.131h10.943v10.97h-10.943zM269.304 286.131h10.943v10.97h-10.943zM291.191 286.131h10.943v10.97h-10.943zM302.134 286.131h10.943v10.97h-10.943zM313.077 286.131h10.943v10.97h-10.943zM345.907 286.131h10.943v10.97h-10.943zM378.736 286.131h10.943v10.97h-10.943zM422.509 286.131h10.943v10.97h-10.943zM433.452 286.131h10.943v10.97h-10.943zM444.396 286.131h10.943v10.97h-10.943zM159.872 297.101h10.943v10.97h-10.943z"/><path d="M170.815 297.101h10.943v10.97h-10.943zM203.645 297.101h10.943v10.97h-10.943zM225.531 297.101h10.943v10.97h-10.943zM258.361 297.101h10.943v10.97h-10.943zM280.247 297.101h10.943v10.97h-10.943zM324.02 297.101h10.943v10.97H324.02zM345.907 297.101h10.943v10.97h-10.943zM367.793 297.101h10.943v10.97h-10.943zM389.68 297.101h10.943v10.97H389.68zM400.623 297.101h10.943v10.97h-10.943zM422.509 297.101h10.943v10.97h-10.943zM433.452 297.101h10.943v10.97h-10.943zM444.396 297.101h10.943v10.97h-10.943zM148.929 308.071h10.943v10.97h-10.943zM170.815 308.071h10.943v10.97h-10.943zM181.759 308.071h10.943v10.97h-10.943zM192.702 308.071h10.943v10.97h-10.943zM236.475 308.071h10.943v10.97h-10.943zM258.361 308.071h10.943v10.97h-10.943zM291.191 308.071h10.943v10.97h-10.943zM345.907 308.071h10.943v10.97h-10.943zM356.85 308.071h10.943v10.97H356.85zM367.793 308.071h10.943v10.97h-10.943zM378.736 308.071h10.943v10.97h-10.943zM400.623 308.071h10.943v10.97h-10.943zM433.452 308.071h10.943v10.97h-10.943zM137.986 319.041h10.943v10.97h-10.943z"/><path d="M148.929 319.041h10.943v10.97h-10.943zM203.645 319.041h10.943v10.97h-10.943zM269.304 319.041h10.943v10.97h-10.943zM291.191 319.041h10.943v10.97h-10.943zM334.963 319.041h10.943v10.97h-10.943zM345.907 319.041h10.943v10.97h-10.943zM356.85 319.041h10.943v10.97H356.85zM400.623 319.041h10.943v10.97h-10.943zM411.566 319.041h10.943v10.97h-10.943zM433.452 319.041h10.943v10.97h-10.943zM225.531 330.011h10.943v10.97h-10.943zM236.475 330.011h10.943v10.97h-10.943zM291.191 330.011h10.943v10.97h-10.943zM302.134 330.011h10.943v10.97h-10.943zM389.68 330.011h10.943v10.97H389.68zM411.566 330.011h10.943v10.97h-10.943zM422.509 330.011h10.943v10.97h-10.943zM433.452 330.011h10.943v10.97h-10.943zM137.986 340.981h10.943v10.97h-10.943zM170.815 340.981h10.943v10.97h-10.943zM203.645 340.981h10.943v10.97h-10.943z"/><path d="M214.588 340.981h10.943v10.97h-10.943zM225.531 340.981h10.943v10.97h-10.943zM236.475 340.981h10.943v10.97h-10.943z"/><path d="M247.418 340.981h10.943v10.97h-10.943zM280.247 340.981h10.943v10.97h-10.943zM291.191 340.981h10.943v10.97h-10.943zM302.134 340.981h10.943v10.97h-10.943zM334.963 340.981h10.943v10.97h-10.943zM356.85 340.981h10.943v10.97H356.85zM378.736 340.981h10.943v10.97h-10.943zM422.509 340.981h10.943v10.97h-10.943zM159.872 351.951h10.943v10.97h-10.943z"/><path d="M170.815 351.951h10.943v10.97h-10.943zM181.759 351.951h10.943v10.97h-10.943zM192.702 351.951h10.943v10.97h-10.943zM225.531 351.951h10.943v10.97h-10.943zM258.361 351.951h10.943v10.97h-10.943zM280.247 351.951h10.943v10.97h-10.943zM291.191 351.951h10.943v10.97h-10.943zM302.134 351.951h10.943v10.97h-10.943zM313.077 351.951h10.943v10.97h-10.943zM324.02 351.951h10.943v10.97H324.02zM334.963 351.951h10.943v10.97h-10.943zM356.85 351.951h10.943v10.97H356.85zM367.793 351.951h10.943v10.97h-10.943zM389.68 351.951h10.943v10.97H389.68zM422.509 351.951h10.943v10.97h-10.943zM148.929 362.921h10.943v10.97h-10.943z"/><path d="M170.815 362.921h10.943v10.97h-10.943zM203.645 362.921h10.943v10.97h-10.943zM247.418 362.921h10.943v10.97h-10.943zM280.247 362.921h10.943v10.97h-10.943zM291.191 362.921h10.943v10.97h-10.943zM302.134 362.921h10.943v10.97h-10.943zM313.077 362.921h10.943v10.97h-10.943zM324.02 362.921h10.943v10.97H324.02zM334.963 362.921h10.943v10.97h-10.943zM345.907 362.921h10.943v10.97h-10.943zM356.85 362.921h10.943v10.97H356.85zM367.793 362.921h10.943v10.97h-10.943zM378.736 362.921h10.943v10.97h-10.943zM389.68 362.921h10.943v10.97H389.68zM400.623 362.921h10.943v10.97h-10.943zM411.566 362.921h10.943v10.97h-10.943zM422.509 362.921h10.943v10.97h-10.943zM225.531 373.891h10.943v10.97h-10.943zM236.475 373.891h10.943v10.97h-10.943z"/><path d="M247.418 373.891h10.943v10.97h-10.943zM356.85 373.891h10.943v10.97H356.85zM400.623 373.891h10.943v10.97h-10.943zM411.566 373.891h10.943v10.97h-10.943zM422.509 373.891h10.943v10.97h-10.943zM433.452 373.891h10.943v10.97h-10.943zM444.396 373.891h10.943v10.97h-10.943zM137.986 384.861h10.943v10.97h-10.943zM148.929 384.861h10.943v10.97h-10.943zM159.872 384.861h10.943v10.97h-10.943z"/><path d="M170.815 384.861h10.943v10.97h-10.943zM181.759 384.861h10.943v10.97h-10.943zM192.702 384.861h10.943v10.97h-10.943zM203.645 384.861h10.943v10.97h-10.943zM291.191 384.861h10.943v10.97h-10.943zM324.02 384.861h10.943v10.97H324.02zM345.907 384.861h10.943v10.97h-10.943zM356.85 384.861h10.943v10.97H356.85zM378.736 384.861h10.943v10.97h-10.943zM400.623 384.861h10.943v10.97h-10.943zM411.566 384.861h10.943v10.97h-10.943zM433.452 384.861h10.943v10.97h-10.943zM137.986 395.831h10.943v10.97h-10.943zM203.645 395.831h10.943v10.97h-10.943zM258.361 395.831h10.943v10.97h-10.943zM269.304 395.831h10.943v10.97h-10.943zM280.247 395.831h10.943v10.97h-10.943zM291.191 395.831h10.943v10.97h-10.943zM302.134 395.831h10.943v10.97h-10.943zM356.85 395.831h10.943v10.97H356.85zM400.623 395.831h10.943v10.97h-10.943zM411.566 395.831h10.943v10.97h-10.943zM444.396 395.831h10.943v10.97h-10.943z"/><path d="M137.986 406.801h10.943v10.97h-10.943zM159.872 406.801h10.943v10.97h-10.943z"/><path d="M170.815 406.801h10.943v10.97h-10.943zM181.759 406.801h10.943v10.97h-10.943zM203.645 406.801h10.943v10.97h-10.943zM247.418 406.801h10.943v10.97h-10.943zM258.361 406.801h10.943v10.97h-10.943zM324.02 406.801h10.943v10.97H324.02zM356.85 406.801h10.943v10.97H356.85zM367.793 406.801h10.943v10.97h-10.943zM378.736 406.801h10.943v10.97h-10.943zM389.68 406.801h10.943v10.97H389.68zM400.623 406.801h10.943v10.97h-10.943zM422.509 406.801h10.943v10.97h-10.943zM137.986 417.771h10.943v10.97h-10.943zM159.872 417.771h10.943v10.97h-10.943z"/><path d="M170.815 417.771h10.943v10.97h-10.943zM181.759 417.771h10.943v10.97h-10.943zM203.645 417.771h10.943v10.97h-10.943zM225.531 417.771h10.943v10.97h-10.943zM236.475 417.771h10.943v10.97h-10.943zM258.361 417.771h10.943v10.97h-10.943zM280.247 417.771h10.943v10.97h-10.943zM302.134 417.771h10.943v10.97h-10.943zM313.077 417.771h10.943v10.97h-10.943zM345.907 417.771h10.943v10.97h-10.943zM367.793 417.771h10.943v10.97h-10.943zM400.623 417.771h10.943v10.97h-10.943zM411.566 417.771h10.943v10.97h-10.943zM444.396 417.771h10.943v10.97h-10.943zM137.986 428.741h10.943v10.97h-10.943z"/><path d="M159.872 428.741h10.943v10.97h-10.943z"/><path d="M170.815 428.741h10.943v10.97h-10.943zM181.759 428.741h10.943v10.97h-10.943zM203.645 428.741h10.943v10.97h-10.943zM225.531 428.741h10.943v10.97h-10.943zM247.418 428.741h10.943v10.97h-10.943zM269.304 428.741h10.943v10.97h-10.943zM291.191 428.741h10.943v10.97h-10.943zM334.963 428.741h10.943v10.97h-10.943zM367.793 428.741h10.943v10.97h-10.943zM389.68 428.741h10.943v10.97H389.68zM422.509 428.741h10.943v10.97h-10.943zM444.396 428.741h10.943v10.97h-10.943zM137.986 439.711h10.943v10.97h-10.943zM203.645 439.711h10.943v10.97h-10.943zM225.531 439.711h10.943v10.97h-10.943zM269.304 439.711h10.943v10.97h-10.943zM280.247 439.711h10.943v10.97h-10.943zM302.134 439.711h10.943v10.97h-10.943zM334.963 439.711h10.943v10.97h-10.943zM345.907 439.711h10.943v10.97h-10.943zM356.85 439.711h10.943v10.97H356.85zM367.793 439.711h10.943v10.97h-10.943zM389.68 439.711h10.943v10.97H389.68zM400.623 439.711h10.943v10.97h-10.943zM411.566 439.711h10.943v10.97h-10.943zM433.452 439.711h10.943v10.97h-10.943z"/><path d="M137.986 450.681h10.943v10.97h-10.943zM148.929 450.681h10.943v10.97h-10.943zM159.872 450.681h10.943v10.97h-10.943z"/><path d="M170.815 450.681h10.943v10.97h-10.943zM181.759 450.681h10.943v10.97h-10.943zM192.702 450.681h10.943v10.97h-10.943zM203.645 450.681h10.943v10.97h-10.943zM225.531 450.681h10.943v10.97h-10.943zM247.418 450.681h10.943v10.97h-10.943zM258.361 450.681h10.943v10.97h-10.943zM334.963 450.681h10.943v10.97h-10.943zM345.907 450.681h10.943v10.97h-10.943zM356.85 450.681h10.943v10.97H356.85zM389.68 450.681h10.943v10.97H389.68zM411.566 450.681h10.943v10.97h-10.943zM433.452 450.681h10.943v10.97h-10.943z"/></g><path d="M71.039 287.697c0 6.043 1.955 10.998 5.866 14.864 3.91 3.866 8.954 5.799 15.131 5.799 6.176 0 11.231-1.966 15.164-5.899 3.932-3.933 5.899-8.943 5.899-15.031 0-6.043-1.967-11.031-5.899-14.964-3.933-3.932-8.988-5.899-15.164-5.899-6.222 0-11.276 1.978-15.165 5.933-3.888 3.954-5.832 9.02-5.832 15.197zm41.793 47.392v-26.596c-2.755 3.111-6.11 5.5-10.065 7.166-3.955 1.666-8.31 2.499-13.064 2.499-8.754 0-15.987-2.821-21.697-8.465-5.71-5.643-8.565-12.842-8.565-21.596 0-9.154 3.011-16.742 9.032-22.763 6.021-6.021 13.52-9.032 22.496-9.032 4.177 0 8.088.778 11.731 2.333 3.644 1.556 7.021 3.889 10.132 6.999v-6.465c0-.934.3-1.622.9-2.067.6-.444 1.566-.666 2.899-.666h10.065c1.778 0 3.089.377 3.933 1.133.844.755 1.266 1.933 1.266 3.533 0 1.777-.544 3.021-1.633 3.732-1.088.711-3.121 1.067-6.099 1.067h-1.266v69.188h1.266c3.022 0 5.088.355 6.199 1.066 1.111.711 1.667 1.956 1.667 3.733 0 1.555-.445 2.733-1.333 3.533-.889.8-2.222 1.2-4 1.2H97.235c-2.089 0-3.544-.356-4.366-1.067-.822-.711-1.233-1.933-1.233-3.666 0-1.6.444-2.799 1.333-3.599.888-.8 2.177-1.2 3.866-1.2h15.997zM170.555 308.627h22.13c1.733 0 3.011.366 3.833 1.1.822.733 1.233 1.899 1.233 3.499 0 1.822-.389 3.077-1.167 3.766-.777.689-2.21 1.033-4.299 1.033h-43.592c-1.733 0-3.044-.4-3.933-1.2-.889-.799-1.333-1.999-1.333-3.599 0-1.555.455-2.711 1.366-3.466.911-.756 2.322-1.133 4.233-1.133h11.598v-42.726h-4.533c-4.31 0-6.999-.345-8.065-1.033-1.066-.689-1.6-1.945-1.6-3.766 0-1.556.434-2.722 1.3-3.5.867-.778 2.189-1.166 3.966-1.166h15.197c1.2 0 2.111.233 2.733.7.622.466.933 1.144.933 2.033V270.5c4.222-5.288 8.621-9.221 13.198-11.798s9.51-3.866 14.798-3.866c3.955 0 7.154.8 9.598 2.4 2.444 1.599 3.666 3.666 3.666 6.198 0 1.645-.611 3.1-1.833 4.366-1.222 1.267-2.566 1.9-4.033 1.9-1.022 0-2.744-.678-5.165-2.033-2.422-1.355-4.588-2.033-6.499-2.033-3.466 0-7.121 1.233-10.965 3.699-3.844 2.467-8.099 6.366-12.765 11.698v27.596zM229.945 313.226v-11.865c0-1.955.367-3.355 1.1-4.199.733-.844 1.922-1.266 3.566-1.266 1.822 0 3.266 1.244 4.333 3.732.711 1.511 1.355 2.644 1.933 3.4 1.866 2.399 4.621 4.321 8.265 5.765 3.644 1.445 7.665 2.167 12.065 2.167 4.71 0 8.487-.956 11.331-2.866 2.844-1.911 4.266-4.422 4.266-7.533 0-3.155-1.144-5.399-3.433-6.732-2.288-1.333-6.21-1.999-11.764-1.999h-3.666c-9.066 0-15.975-1.578-20.73-4.733-4.755-3.155-7.132-7.732-7.132-13.731 0-5.866 2.321-10.42 6.965-13.664 4.644-3.244 11.165-4.866 19.563-4.866 3.422 0 6.91.478 10.465 1.433 3.555.955 5.422 1.433 5.599 1.433.489 0 1.422-.433 2.8-1.3 1.377-.866 2.733-1.299 4.066-1.299 1.511 0 2.633.555 3.366 1.666.733 1.111 1.1 2.777 1.1 4.999v7.799c0 2.355-.356 4.055-1.067 5.099-.711 1.044-1.844 1.566-3.399 1.566-1.333 0-2.977-1.133-4.933-3.399-1.377-1.555-2.51-2.733-3.399-3.533-2.355-2.177-4.866-3.744-7.532-4.699-2.666-.955-5.799-1.433-9.398-1.433-4.178 0-7.544.922-10.099 2.766-2.555 1.844-3.832 4.188-3.832 7.032 0 2.8 1.31 4.799 3.932 5.999 2.622 1.2 8.266 1.889 16.931 2.066 9.243.223 15.997 1.833 20.263 4.833 4.266 2.999 6.399 7.632 6.399 13.898 0 5.999-2.355 10.798-7.066 14.397-4.71 3.6-11.064 5.399-19.063 5.399-2.533 0-5.355-.233-8.465-.7-3.111-.466-7.021-1.255-11.732-2.366-1.555 1.022-2.888 1.789-3.999 2.3-1.111.511-2.044.766-2.799.766-1.556 0-2.744-.544-3.567-1.633-.822-1.089-1.233-2.655-1.233-4.699zM360.99 260.435v-.267c0-1.466.422-2.544 1.266-3.232.844-.689 2.155-1.034 3.933-1.034 1.822 0 3.077.534 3.766 1.6.689 1.067 1.033 3.266 1.033 6.599v12.398c0 1.644-.422 2.877-1.266 3.699-.845.822-2.111 1.233-3.8 1.233-1.2 0-2.233-.344-3.099-1.033-.867-.689-1.922-2.122-3.166-4.299-2.133-3.599-4.722-6.321-7.766-8.165-3.044-1.844-6.543-2.766-10.498-2.766-6.932 0-12.565 2.044-16.897 6.132-4.333 4.088-6.499 9.376-6.499 15.864 0 6.621 2.077 12.031 6.232 16.23 4.155 4.2 9.499 6.299 16.031 6.299 2.977 0 5.81-.411 8.498-1.233a27.841 27.841 0 007.632-3.699c.845-.533 1.978-1.356 3.4-2.466 2.888-2.356 5.155-3.533 6.799-3.533 1.377 0 2.499.433 3.366 1.3.866.866 1.3 1.988 1.3 3.366 0 3.51-3.322 7.098-9.965 10.764-6.644 3.667-13.698 5.5-21.163 5.5-9.643 0-17.675-3.089-24.096-9.266-6.421-6.176-9.632-13.886-9.632-23.129 0-9.243 3.199-16.964 9.598-23.163 6.399-6.199 14.398-9.298 23.996-9.298 3.377 0 6.766.455 10.165 1.366 3.4.911 7.01 2.322 10.832 4.233zM437.643 288.564c-2.444-.8-4.81-1.389-7.099-1.767a41.846 41.846 0 00-6.832-.566c-6.843 0-12.242 1.155-16.197 3.466-3.955 2.31-5.932 5.421-5.932 9.331 0 3.022 1.233 5.511 3.699 7.466 2.466 1.955 5.61 2.933 9.432 2.933 5.643 0 10.876-1.478 15.697-4.433 4.822-2.955 7.232-6.032 7.232-9.232v-7.198zm.534 20.996c-3.644 3.288-7.61 5.799-11.898 7.532-4.289 1.733-8.699 2.6-13.232 2.6-6.621 0-11.964-1.845-16.03-5.533-4.066-3.688-6.099-8.487-6.099-14.397 0-7.021 2.699-12.465 8.099-16.331 5.399-3.866 12.986-5.799 22.762-5.799 2.578 0 5.177.167 7.799.5 2.622.333 5.31.855 8.065 1.566v-.466c0-5.11-1.222-8.888-3.666-11.332-2.444-2.444-6.243-3.666-11.398-3.666-3.466 0-7.332.934-11.598 2.8-4.266 1.866-7.088 2.799-8.465 2.799-1.289 0-2.355-.522-3.2-1.566-.844-1.044-1.266-2.389-1.266-4.033 0-2.621 2.455-4.843 7.365-6.665 4.911-1.822 11.187-2.733 18.831-2.733 7.82 0 13.731 1.988 17.73 5.966 3.999 3.977 5.999 9.853 5.999 17.63v30.195h3.266c3.155 0 5.266.333 6.332 1 1.067.666 1.6 1.866 1.6 3.599 0 1.6-.444 2.8-1.333 3.599-.889.8-2.222 1.2-3.999 1.2h-10.465c-1.245 0-2.267-.378-3.067-1.133-.799-.755-1.333-1.844-1.599-3.266l-.533-4.066zM479.969 308.627v-42.726h-1.266c-3.022 0-5.099-.356-6.232-1.067s-1.7-1.955-1.7-3.732c0-1.645.467-2.833 1.4-3.567.933-.733 2.444-1.099 4.532-1.099h9.532c1.2 0 2.133.244 2.8.733.666.489.999 1.155.999 2v4.532c3.244-3.022 6.455-5.255 9.632-6.699 3.177-1.444 6.477-2.166 9.898-2.166 6.71 0 11.987 2.088 15.831 6.266 3.844 4.177 5.766 9.953 5.766 17.33v30.195h3.132c2.222 0 3.822.366 4.8 1.1.977.733 1.466 1.899 1.466 3.499 0 1.733-.522 2.966-1.566 3.699-1.045.734-2.9 1.1-5.566 1.1h-14.731c-2.844 0-4.666-.333-5.466-1-.799-.666-1.199-1.933-1.199-3.799 0-1.733.466-2.933 1.399-3.599.934-.667 2.689-1 5.266-1h2.333v-27.729c0-5.199-1.178-9.165-3.533-11.898-2.355-2.733-5.776-4.099-10.265-4.099-4.532 0-8.531 1.533-11.998 4.599-3.466 3.066-5.199 6.866-5.199 11.398v27.729h2.333c2.666 0 4.466.333 5.399 1 .934.666 1.4 1.866 1.4 3.599 0 1.866-.4 3.133-1.2 3.799-.8.667-2.755 1-5.865 1H476.37c-1.822 0-3.188-.389-4.099-1.166-.911-.778-1.367-1.989-1.367-3.633 0-1.777.522-2.988 1.567-3.633 1.044-.644 3.077-.966 6.099-.966h1.399z" fill="#fff" fill-rule="nonzero"/><defs><radialGradient id="_Radial1" cx="0" cy="0" r="1" gradientUnits="userSpaceOnUse" gradientTransform="matrix(600 0 0 600 0 300)"><stop offset="0" stop-color="#ff006a"/><stop offset="1" stop-color="#33006a"/></radialGradient></defs></svg>