<svg fill="#fff" height="1422.222" viewBox="-33 -33 1066.667 1066.667" width="1422.222" xmlns="http://www.w3.org/2000/svg"><path d="M56.574 150.324c0 16.18-13.117 29.297-29.297 29.297-16.183 0-29.297-13.117-29.297-29.297V27.277c0-16.183 13.114-29.297 29.297-29.297h123.04c16.183 0 29.296 13.114 29.296 29.297 0 16.18-13.113 29.297-29.297 29.297H56.574zM460.871 779.23c-16.184 0-29.297-13.117-29.297-29.296 0-16.184 13.113-29.297 29.297-29.297h25.39c16.18 0 29.298 13.113 29.298 29.297 0 16.18-13.118 29.296-29.297 29.296zm21.484-390.625c0 16.18-13.117 29.297-29.296 29.297-16.184 0-29.297-13.117-29.297-29.297v-25.39c0-16.184 13.113-29.297 29.297-29.297 16.18 0 29.296 13.113 29.296 29.297zM662.043 716.73c-16.184 0-29.297-13.117-29.297-29.296 0-16.184 13.113-29.297 29.297-29.297h25.39c16.18 0 29.297 13.113 29.297 29.297 0 16.18-13.117 29.296-29.296 29.296zM57.551 527.277h136.328a28.972 28.972 0 00-.586 5.86v87.89c0 16.18 13.113 29.297 29.297 29.297 16.18 0 29.297-13.117 29.297-29.297v-87.89c0-2.008-.196-3.965-.586-5.86h258.398v33.203H355.402c-16.183 0-29.297 13.114-29.297 29.297 0 16.18 13.114 29.297 29.297 29.297h183.594c16.18 0 29.297-13.117 29.297-29.297v-62.5h109.375v85.938c0 16.18 13.113 29.297 29.297 29.297 16.18 0 29.297-13.117 29.297-29.297v-85.938H938.41c16.18 0 29.297-13.117 29.297-29.297 0-16.183-13.117-29.296-29.297-29.296H804.621v-56.641h29.297c16.18 0 29.297-13.117 29.297-29.297 0-16.184-13.117-29.297-29.297-29.297H687.434c-16.184 0-29.297 13.113-29.297 29.297 0 16.18 13.113 29.297 29.297 29.297h58.593v56.64H568.293v-76.171c0-16.184-13.117-29.297-29.297-29.297-16.184 0-29.297 13.113-29.297 29.297v76.172H57.551c-16.184 0-29.297 13.113-29.297 29.296 0 16.18 13.113 29.297 29.297 29.297zm506.836-359.375c0-16.183 13.113-29.297 29.297-29.297 16.18 0 29.296 13.114 29.296 29.297V322.2c0 16.18-13.117 29.297-29.296 29.297-16.184 0-29.297-13.117-29.297-29.297zm-173.828 11.72h66.406v-11.72c0-16.183 13.113-29.297 29.297-29.297 16.18 0 29.297 13.114 29.297 29.297v97.657c0 16.18-13.118 29.296-29.297 29.296-16.184 0-29.297-13.117-29.297-29.296v-27.344h-66.406v13.672c0 16.18-13.118 29.297-29.297 29.297-16.184 0-29.297-13.118-29.297-29.297v-83.985c0-16.183 13.113-29.297 29.297-29.297 16.18 0 29.297 13.114 29.297 29.297zM156.176 410.09c-16.176 0-29.297-13.117-29.297-29.297 0-16.184 13.121-29.297 29.297-29.297H372.98c16.18 0 29.297 13.113 29.297 29.297 0 16.18-13.117 29.297-29.297 29.297zm638.68 388.672v29.297c0 16.18 13.113 29.296 29.296 29.296 16.18 0 29.297-13.117 29.297-29.296V652.277c0-16.172-13.117-29.297-29.297-29.297-16.183 0-29.297 13.125-29.297 29.297v87.891H697.2c-16.183 0-29.297 13.125-29.297 29.297 0 16.18 13.114 29.297 29.297 29.297zm-298.829 58.593h87.891c16.18 0 29.297-13.117 29.297-29.296V677.668c0-16.184-13.117-29.297-29.297-29.297-16.184 0-29.297 13.113-29.297 29.297v121.094h-58.594c-16.183 0-29.297 13.113-29.297 29.297 0 16.18 13.114 29.296 29.297 29.296zM333.918 679.621c0-16.184 13.113-29.297 29.297-29.297 16.18 0 29.297 13.114 29.297 29.297v85.938c0 16.18-13.117 29.296-29.297 29.296-16.184 0-29.297-13.117-29.297-29.296zm-177.734-3.906H279.23c16.18 0 29.297 13.113 29.297 29.297v123.047c0 16.18-13.117 29.296-29.297 29.296H156.184c-16.184 0-29.297-13.117-29.297-29.296V705.012c0-16.184 13.113-29.297 29.297-29.297zm93.75 58.594H185.48v64.453h64.454zM716.73 138.605h123.047c16.18 0 29.297 13.114 29.297 29.297V290.95c0 16.18-13.117 29.297-29.297 29.297H716.73c-16.183 0-29.296-13.117-29.296-29.297V167.902c0-16.183 13.113-29.297 29.296-29.297zm93.75 58.594h-64.453v64.453h64.453zm-654.296-58.594c-16.184 0-29.297 13.114-29.297 29.297V290.95c0 16.18 13.113 29.297 29.297 29.297H279.23c16.18 0 29.297-13.117 29.297-29.297V167.902c0-16.183-13.117-29.297-29.297-29.297zm93.75 58.594v64.453H185.48V197.2zm689.453 648.438c0-16.184 13.113-29.297 29.297-29.297 16.18 0 29.296 13.113 29.296 29.297v123.047c0 16.18-13.117 29.296-29.296 29.296H845.64c-16.176 0-29.297-13.117-29.297-29.296 0-16.184 13.12-29.297 29.297-29.297h93.746zm-941.407 0v123.047c0 16.18 13.114 29.296 29.297 29.296h123.04c16.183 0 29.296-13.117 29.296-29.296 0-16.184-13.113-29.297-29.297-29.297H56.574v-93.75c0-16.184-13.117-29.297-29.297-29.297-16.183 0-29.297 13.113-29.297 29.297zm1000-695.313V27.277c0-16.183-13.117-29.297-29.296-29.297H845.64c-16.176 0-29.297 13.114-29.297 29.297 0 16.18 13.12 29.297 29.297 29.297h93.746v93.75c0 16.18 13.113 29.297 29.297 29.297 16.18 0 29.296-13.117 29.296-29.297zm0 0" fill-rule="evenodd"/></svg>
